<svg data-v-6805eed4="" version="1.0" xmlns="http://www.w3.org/2000/svg" xmlns:xlink="http://www.w3.org/1999/xlink" width="100%" height="100%" viewBox="0 0 340.000000 250.000000" preserveAspectRatio="xMidYMid meet" color-interpolation-filters="sRGB" style="margin: auto;">   <g data-v-6805eed4="" fill="#0094e6" class="icon-text-wrapper icon-svg-group iconsvg" transform="translate(83.17999267578125,64.84025573730469)"><g class="iconsvg-imagesvg" transform="translate(56.82000732421875,0)"><g><rect fill="#0094e6" fill-opacity="0" stroke-width="2" x="0" y="0" width="60" height="61.25699350675869" class="image-rect"></rect> <svg x="0" y="0" width="60" height="61.25699350675869" filtersec="colorsb2638426904" class="image-svg-svg primary" style="overflow: visible;"><svg xmlns="http://www.w3.org/2000/svg" viewBox="-0.0005493760108947754 -0.0000629425048828125 248.5145263671875 253.72093200683594"><g><g><path d="M72.58 253.61s-19.84-40.83-20.13-88.72 8.25-71.8 8.25-71.8 46.29-7.78 51.71 33.25c-16.19 36.47-3.79 57.15-3.79 57.15s25-4.55 66.31-28.75 66.77-61.8 66.77-61.8 40.42 53.13-75.63 127.19c-51.76 33-93.49 33.49-93.49 33.49z" fill="#0094e6"></path><path d="M18 26.81S63.27 30 104.9 53.74s58.06 43 58.06 43-16.41 44-54.65 28.15c-23.5-32.2-47.61-31.8-47.61-31.8s-8.55 23.91-8.25 71.8 20.14 88.73 20.14 88.73S6.36 262.06.25 124.52C-2.48 63.18 18 26.81 18 26.81z" fill="#ffc200"></path><path d="M241.7 92.94s-25.44 37.6-66.77 61.8-66.31 28.75-66.31 28.75-29.88-36.2 2.94-61.4c39.68-4.22 51.39-25.3 51.39-25.3s-16.43-19.36-58.06-43S18 26.81 18 26.81s25.8-61.57 148 1.9c54.44 28.29 75.7 64.22 75.7 64.22z" fill="#98c900"></path></g></g></svg></svg> <!----></g></g> <g transform="translate(0,68.25699234008789)"><g data-gra="path-name" fill-rule="" class="tp-name iconsvg-namesvg" transform="translate(0,0)"><g transform="scale(1)"><g><path d="M19.28-27.15L19.28-27.15Q20.48-27.15 21.57-26.96L21.57-26.96 22.09-26.86 21.26-18.18Q20.13-18.46 18.13-18.46L18.13-18.46Q15.12-18.46 13.75-17.08 12.38-15.7 12.38-13.11L12.38-13.11 12.38 0 3.18 0 3.18-26.68 10.03-26.68 11.47-22.41 11.91-22.41Q13.07-24.53 15.13-25.84 17.19-27.15 19.28-27.15ZM38.68 0.47L38.68 0.47Q32.02 0.47 28.34-3.07 24.65-6.62 24.65-13.16L24.65-13.16Q24.65-19.92 28.07-23.53 31.48-27.15 37.81-27.15L37.81-27.15Q43.84-27.15 47.12-24 50.41-20.86 50.41-14.95L50.41-14.95 50.41-10.85 33.95-10.85Q34.05-8.62 35.59-7.35 37.13-6.07 39.79-6.07L39.79-6.07Q42.22-6.07 44.25-6.53 46.29-6.99 48.67-8.1L48.67-8.1 48.67-1.48Q46.5-0.38 44.19 0.05 41.89 0.47 38.68 0.47ZM38.14-20.88L38.14-20.88Q36.52-20.88 35.42-19.86 34.33-18.84 34.14-16.65L34.14-16.65 42.05-16.65Q42-18.58 40.96-19.73 39.91-20.88 38.14-20.88ZM88.41 0L78.57 0 75.56-12.71 74.85-16.55 74.38-19.64 74.24-19.64Q73.08-13.04 72.68-11.33L72.68-11.33 69.98 0 60.3 0 53.02-26.68 62.09-26.68 64.25-16.43Q65.29-11.16 65.45-7.68L65.45-7.68 65.6-7.68Q65.67-9.84 66.89-15.92L66.89-15.92 69.36-26.68 79.53-26.68 81.79-15.78Q82.88-10.57 83.16-7.68L83.16-7.68 83.3-7.68Q83.44-9.47 83.77-12.14 84.1-14.81 84.5-16.43L84.5-16.43 86.86-26.68 95.73-26.68 88.41 0ZM123.28 0L116.9 0 115.13-3.53 114.95-3.53Q113.09-1.22 111.16-0.38 109.22 0.47 106.16 0.47L106.16 0.47Q102.4 0.47 100.23-1.79 98.06-4.05 98.06-8.15L98.06-8.15Q98.06-12.41 101.03-14.49 104-16.58 109.62-16.83L109.62-16.83 114.07-16.98 114.07-17.35Q114.07-20.65 110.83-20.65L110.83-20.65Q107.91-20.65 103.41-18.67L103.41-18.67 100.75-24.75Q105.41-27.15 112.52-27.15L112.52-27.15Q117.65-27.15 120.47-24.6 123.28-22.06 123.28-17.49L123.28-17.49 123.28 0ZM110.07-6.03L110.07-6.03Q111.74-6.03 112.93-7.09 114.12-8.15 114.12-9.84L114.12-9.84 114.12-11.91 112-11.82Q107.46-11.65 107.46-8.48L107.46-8.48Q107.46-6.03 110.07-6.03ZM145.65-27.15L145.65-27.15Q146.85-27.15 147.93-26.96L147.93-26.96 148.45-26.86 147.63-18.18Q146.5-18.46 144.49-18.46L144.49-18.46Q141.48-18.46 140.12-17.08 138.75-15.7 138.75-13.11L138.75-13.11 138.75 0 129.54 0 129.54-26.68 136.4-26.68 137.83-22.41 138.28-22.41Q139.43-24.53 141.49-25.84 143.55-27.15 145.65-27.15ZM160.46 0.47L160.46 0.47Q157.61 0.47 155.48-1.15 153.35-2.78 152.18-5.93 151.02-9.09 151.02-13.3L151.02-13.3Q151.02-19.8 153.63-23.47 156.24-27.15 160.81-27.15L160.81-27.15Q163.05-27.15 164.73-26.25 166.41-25.36 167.8-23.24L167.8-23.24 167.99-23.24Q167.54-26.37 167.54-29.5L167.54-29.5 167.54-36.64 176.82-36.64 176.82 0 169.88 0 167.9-3.37 167.54-3.37Q165.17 0.47 160.46 0.47ZM164.22-6.8L164.22-6.8Q166.44-6.8 167.34-8.19 168.25-9.58 168.32-12.48L168.32-12.48 168.32-13.21Q168.32-16.74 167.31-18.24 166.3-19.73 164.13-19.73L164.13-19.73Q162.32-19.73 161.32-18.02 160.32-16.32 160.32-13.16L160.32-13.16Q160.32-10.05 161.33-8.43 162.34-6.8 164.22-6.8Z" transform="translate(-3.180000066757202, 36.63999938964844)"></path></g> <!----> <!----> <!----> <!----> <!----> <!----> <!----></g></g> <g data-gra="path-slogan" fill-rule="" class="tp-slogan iconsvg-slogansvg" fill="#0094e6" transform="translate(3.475006103515625,43.11000061035156)"><rect width="0"></rect> <rect x="169.69000244140625" width="0"></rect> <g transform="translate(0,0)"><g transform="scale(1)"><path d="M5.02-3.70L2.20-3.70L2.20 0L1.03 0L1.03-8.58L5.02-8.58Q7.88-8.58 7.88-6.28L7.88-6.28Q7.88-4.88 6.66-4.22L6.66-4.22Q7.69-3.94 7.69-2.58L7.69-2.58L7.78-1.03Q7.73-0.38 8.20-0.19L8.20-0.19L8.20 0L6.75 0Q6.61-0.61 6.56-2.16L6.56-2.16Q6.61-3.70 5.02-3.70L5.02-3.70ZM5.11-7.64L2.20-7.64L2.20-4.69L4.92-4.69Q6.66-4.69 6.66-6.19L6.66-6.19Q6.66-7.64 5.11-7.64L5.11-7.64ZM10.83-1.03L15.98-1.03L15.98 0L9.66 0L9.66-8.58L15.89-8.58L15.89-7.59L10.83-7.59L10.83-4.92L15.52-4.92L15.52-3.89L10.83-3.89L10.83-1.03ZM17.67-8.58L18.84-8.58L18.84 0L17.67 0L17.67-8.58ZM22.22-8.58L26.53-1.64L26.53-8.58L27.66-8.58L27.66 0L26.34 0L21.98-6.94L21.94-6.94L21.94 0L20.81 0L20.81-8.58L22.22-8.58ZM34.97-3.89L30.75-3.89L30.75 0L29.58 0L29.58-8.58L35.53-8.58L35.53-7.59L30.75-7.59L30.75-4.92L34.97-4.92L34.97-3.89ZM43.50-4.27L43.50-4.27Q43.31-7.64 40.50-7.83L40.50-7.83Q37.64-7.69 37.50-4.27L37.50-4.27Q37.64-0.94 40.50-0.80L40.50-0.80Q43.31-0.98 43.50-4.27ZM44.67-4.27L44.67-4.27Q44.39 0 40.50 0.14L40.50 0.14Q36.56 0 36.28-4.27L36.28-4.27Q36.52-8.72 40.50-8.81L40.50-8.81Q44.39-8.67 44.67-4.27ZM50.16-3.70L47.34-3.70L47.34 0L46.17 0L46.17-8.58L50.16-8.58Q53.02-8.58 53.02-6.28L53.02-6.28Q53.02-4.88 51.80-4.22L51.80-4.22Q52.83-3.94 52.83-2.58L52.83-2.58L52.92-1.03Q52.88-0.38 53.34-0.19L53.34-0.19L53.34 0L51.89 0Q51.75-0.61 51.70-2.16L51.70-2.16Q51.75-3.70 50.16-3.70L50.16-3.70ZM50.25-7.64L47.34-7.64L47.34-4.69L50.06-4.69Q51.80-4.69 51.80-6.19L51.80-6.19Q51.80-7.64 50.25-7.64L50.25-7.64ZM61.83-6.05L61.83-6.05L60.70-6.05Q60.28-7.78 58.31-7.83L58.31-7.83Q55.59-7.69 55.50-4.36L55.50-4.36Q55.50-0.80 58.36-0.80L58.36-0.80Q60.33-0.84 60.80-3.19L60.80-3.19L61.92-3.19Q61.41 0.05 58.13 0.14L58.13 0.14Q54.38 0 54.28-4.31L54.28-4.31Q54.47-8.63 58.31-8.81L58.31-8.81Q61.36-8.72 61.83-6.05ZM64.59-1.03L69.75-1.03L69.75 0L63.42 0L63.42-8.58L69.66-8.58L69.66-7.59L64.59-7.59L64.59-4.92L69.28-4.92L69.28-3.89L64.59-3.89L64.59-1.03ZM79.50-8.58L79.50 0L78.38 0L78.38-5.06Q78.38-5.77 78.38-7.22L78.38-7.22L75.94 0L74.77 0L72.38-7.22L72.33-7.22Q72.33-6.70 72.38-5.67L72.38-5.67Q72.38-5.16 72.38-5.06L72.38-5.06L72.38 0L71.20 0L71.20-8.58L72.89-8.58L75.38-1.31L77.81-8.58L79.50-8.58ZM82.50-1.03L87.66-1.03L87.66 0L81.33 0L81.33-8.58L87.56-8.58L87.56-7.59L82.50-7.59L82.50-4.92L87.19-4.92L87.19-3.89L82.50-3.89L82.50-1.03ZM90.56-8.58L94.88-1.64L94.88-8.58L96-8.58L96 0L94.69 0L90.33-6.94L90.28-6.94L90.28 0L89.16 0L89.16-8.58L90.56-8.58ZM99.98-7.59L97.08-7.59L97.08-8.58L104.02-8.58L104.02-7.59L101.11-7.59L101.11 0L99.98 0L99.98-7.59ZM108.38-8.58L109.55-8.58L109.55-1.03L113.91-1.03L113.91 0L108.38 0L108.38-8.58ZM116.34-1.03L121.50-1.03L121.50 0L115.17 0L115.17-8.58L121.41-8.58L121.41-7.59L116.34-7.59L116.34-4.92L121.03-4.92L121.03-3.89L116.34-3.89L116.34-1.03ZM128.67 0L127.83-2.48L124.36-2.48L123.47 0L122.30 0L125.53-8.58L126.84-8.58L129.94 0L128.67 0ZM126.09-7.31L124.73-3.52L127.41-3.52L126.14-7.31L126.09-7.31ZM135.09-3.70L132.28-3.70L132.28 0L131.11 0L131.11-8.58L135.09-8.58Q137.95-8.58 137.95-6.28L137.95-6.28Q137.95-4.88 136.73-4.22L136.73-4.22Q137.77-3.94 137.77-2.58L137.77-2.58L137.86-1.03Q137.81-0.38 138.28-0.19L138.28-0.19L138.28 0L136.83 0Q136.69-0.61 136.64-2.16L136.64-2.16Q136.69-3.70 135.09-3.70L135.09-3.70ZM135.19-7.64L132.28-7.64L132.28-4.69L135-4.69Q136.73-4.69 136.73-6.19L136.73-6.19Q136.73-7.64 135.19-7.64L135.19-7.64ZM141-8.58L145.31-1.64L145.31-8.58L146.44-8.58L146.44 0L145.13 0L140.77-6.94L140.72-6.94L140.72 0L139.59 0L139.59-8.58L141-8.58ZM148.41-8.58L149.58-8.58L149.58 0L148.41 0L148.41-8.58ZM152.95-8.58L157.27-1.64L157.27-8.58L158.39-8.58L158.39 0L157.08 0L152.72-6.94L152.67-6.94L152.67 0L151.55 0L151.55-8.58L152.95-8.58ZM166.59-3.61L163.97-3.61L163.97-4.59L167.72-4.59L167.72 0L166.97 0L166.69-1.08Q165.70 0.09 163.88 0.14L163.88 0.14Q162.14 0.14 161.20-0.75L161.20-0.75Q159.80-2.06 159.84-4.36L159.84-4.36Q160.17-8.63 163.92-8.81L163.92-8.81Q167.11-8.63 167.58-6L167.58-6L166.45-6Q165.98-7.78 163.88-7.83L163.88-7.83Q161.20-7.64 161.06-4.31L161.06-4.31Q161.06-0.75 163.92-0.75L163.92-0.75Q164.95-0.75 165.70-1.31L165.70-1.31Q166.64-2.06 166.59-3.61L166.59-3.61Z" transform="translate(-1.03125, 8.8125)"></path></g></g></g></g></g><defs v-gra="od"></defs></svg>